<?xml version="1.0" standalone="no"?>
<!DOCTYPE svg PUBLIC "-//W3C//DTD SVG 20010904//EN"
 "http://www.w3.org/TR/2001/REC-SVG-20010904/DTD/svg10.dtd">
<svg version="1.0" xmlns="http://www.w3.org/2000/svg"
 width="395.000000pt" height="389.000000pt" viewBox="0 0 395.000000 389.000000"
 preserveAspectRatio="xMidYMid meet">
<metadata>
Created by potrace 1.16, written by Peter Selinger 2001-2019
</metadata>
<g transform="translate(0.000000,389.000000) scale(0.100000,-0.100000)"
fill="#000000" stroke="none">
<path d="M1770 3764 c-104 -10 -373 -69 -484 -105 -252 -83 -549 -276 -746
-486 -294 -313 -441 -616 -501 -1033 -15 -105 -15 -365 0 -485 33 -257 137
-530 293 -770 163 -252 378 -452 627 -584 219 -116 359 -165 576 -203 101 -17
146 -19 285 -15 91 3 193 11 227 17 52 10 78 9 158 -5 357 -65 763 93 1066
413 222 235 415 620 500 1001 30 138 44 374 31 537 -25 301 -150 637 -335 899
-159 224 -311 376 -520 516 -230 154 -456 242 -732 284 -101 16 -363 27 -445
19z m-22 -89 c-3 -3 -76 -32 -162 -65 -238 -90 -339 -154 -524 -334 -204 -197
-342 -425 -342 -562 0 -30 -4 -54 -10 -54 -11 0 -116 -153 -148 -215 -107
-210 -91 -456 38 -584 32 -31 48 -61 76 -143 69 -199 173 -386 300 -538 75
-91 129 -138 261 -224 112 -74 164 -99 244 -119 44 -12 54 -19 60 -40 20 -75
97 -153 198 -201 66 -31 67 -31 231 -31 108 0 180 5 209 13 23 7 41 15 39 17
-2 2 -59 9 -128 15 -278 25 -385 72 -450 201 -27 52 -25 66 14 105 45 45 73
44 166 -7 132 -71 175 -87 260 -100 221 -32 577 58 763 194 56 40 227 205 227
219 0 5 22 33 49 61 51 54 138 181 210 305 24 41 45 72 47 70 11 -11 -47 -288
-70 -338 -14 -30 -26 -62 -26 -70 0 -28 -96 -185 -177 -290 -147 -191 -298
-315 -483 -396 -135 -59 -217 -75 -415 -83 -97 -4 -179 -11 -190 -18 -11 -6
-37 -29 -59 -51 -66 -69 -60 -159 16 -214 l33 -23 -50 -7 c-387 -51 -901 116
-1247 406 -152 127 -321 352 -428 571 -187 382 -226 905 -99 1315 16 52 37
109 47 125 10 17 26 51 36 77 9 26 30 63 47 84 16 20 34 54 41 76 15 52 246
328 274 328 7 0 14 6 17 14 10 26 220 186 342 260 198 121 313 164 600 226
130 28 173 35 163 25z m567 -41 c184 -38 380 -121 560 -238 283 -184 510 -437
660 -736 142 -283 201 -615 175 -990 -12 -168 -14 -181 -26 -148 -6 19 -17 69
-23 109 -12 72 -46 181 -76 238 -8 16 -29 40 -47 52 -40 28 -38 26 -143 170
-88 121 -172 207 -234 238 -20 10 -70 31 -111 47 -69 25 -87 28 -215 28 -77 1
-172 -5 -212 -12 -62 -12 -81 -21 -135 -64 -163 -130 -358 -170 -555 -113 -48
14 -95 32 -104 41 -9 8 -58 26 -108 39 -151 41 -196 73 -246 177 -48 100 -140
195 -232 242 -99 50 -300 64 -392 28 -30 -12 -56 -20 -58 -18 -15 15 120 251
200 351 183 227 442 407 720 499 70 23 258 67 342 79 45 7 181 -3 260 -19z
m-1216 -965 c123 -28 242 -122 300 -237 56 -111 131 -172 231 -188 29 -5 38
-10 31 -17 -22 -22 -12 -66 24 -106 19 -21 35 -45 35 -53 0 -34 -62 -110 -121
-148 -76 -49 -142 -63 -278 -59 l-106 4 0 -24 c0 -43 39 -60 165 -71 63 -6
135 -18 160 -28 34 -13 74 -17 160 -16 117 0 134 3 390 74 50 14 105 21 166
21 281 0 512 -149 643 -415 27 -56 60 -116 72 -134 l22 -33 -61 -60 c-202
-196 -585 -327 -845 -289 -87 13 -111 22 -223 87 -92 54 -147 68 -204 53 -46
-12 -100 -60 -100 -89 -1 -43 -15 -45 -95 -16 -199 73 -432 290 -576 537 -44
75 -111 223 -123 270 l-6 27 62 -2 c83 -1 155 30 208 90 86 98 98 235 37 416
-20 59 -37 127 -37 150 0 48 -13 67 -47 67 -54 0 -57 -86 -8 -231 43 -126 52
-193 35 -253 -26 -95 -125 -167 -207 -151 -125 23 -209 130 -220 280 -8 101
10 183 63 292 56 113 105 170 182 211 93 50 178 63 271 41z m1892 -379 c145
-44 273 -147 339 -271 47 -89 43 -111 -52 -300 -77 -151 -229 -399 -246 -399
-4 0 -22 38 -40 85 -18 46 -51 112 -74 147 -68 107 -187 217 -251 234 -35 8
-35 30 2 103 35 68 117 146 169 161 54 15 153 12 202 -5 24 -8 65 -29 92 -45
53 -33 68 -32 68 5 0 53 -103 123 -212 144 -60 11 -166 -3 -222 -30 -78 -36
-206 -195 -206 -255 0 -12 -5 -14 -17 -9 -99 42 -130 48 -278 49 -145 0 -156
-1 -312 -41 -174 -45 -266 -59 -309 -49 l-26 7 46 33 c26 18 61 52 78 75 31
43 108 238 108 275 l0 20 14 -20 c8 -11 48 -36 88 -55 71 -33 77 -34 193 -34
106 0 129 4 195 28 41 15 113 51 159 79 112 68 177 86 317 87 85 1 127 -4 175
-19z m551 -516 c37 -116 78 -329 78 -400 0 -83 -15 -133 -96 -312 -166 -369
-386 -623 -662 -765 -170 -88 -342 -137 -481 -137 -89 0 -231 29 -278 56 -45
26 -93 81 -93 106 0 8 9 23 20 33 16 15 52 21 183 32 89 7 200 20 246 29 223
41 438 178 637 405 138 156 202 256 278 429 65 147 80 229 79 432 -1 174 -1
177 20 181 38 7 41 3 69 -89z"/>
<path d="M1508 3244 c-15 -7 -30 -24 -34 -36 -22 -66 5 -271 52 -398 46 -122
80 -130 134 -30 19 36 64 95 100 131 71 72 122 97 258 127 131 28 270 -8 399
-104 47 -35 105 -111 156 -204 16 -30 19 -31 39 -18 28 19 51 63 89 172 24 70
31 109 36 205 6 112 5 119 -16 140 -12 12 -34 21 -51 21 -47 0 -145 -36 -258
-96 -57 -30 -112 -54 -124 -54 -11 0 -45 7 -76 16 -67 20 -181 15 -263 -11
l-55 -17 -79 50 c-74 47 -196 102 -255 115 -14 3 -37 -1 -52 -9z m108 -95 c39
-16 154 -80 173 -96 3 -2 -18 -24 -46 -48 -60 -53 -123 -135 -123 -161 0 -16
-2 -17 -10 -4 -37 56 -75 330 -45 330 2 0 25 -9 51 -21z m1034 -12 c0 -51 -30
-215 -47 -254 l-14 -36 -36 54 c-45 69 -76 102 -119 125 -19 10 -33 23 -31 27
3 10 215 115 235 116 7 1 12 -12 12 -32z"/>
<path d="M1767 2713 c-24 -23 6 -74 60 -102 56 -29 143 -2 173 53 13 26 13 29
-4 42 -17 12 -23 10 -48 -11 -40 -34 -96 -34 -128 0 -23 25 -41 31 -53 18z"/>
<path d="M2224 2706 c-19 -50 38 -106 108 -106 96 0 175 77 116 114 -14 8 -23
5 -46 -17 -37 -35 -83 -36 -124 -2 -34 29 -46 31 -54 11z"/>
<path d="M2535 2650 c-4 -6 -4 -24 0 -40 l7 -30 98 0 c91 0 99 2 105 21 4 13
0 27 -11 40 -14 16 -31 19 -105 19 -49 0 -91 -5 -94 -10z"/>
<path d="M2067 2582 c-15 -2 -32 -12 -37 -22 -9 -16 -5 -26 20 -51 16 -18 30
-38 30 -45 0 -24 -51 -54 -92 -54 -36 0 -39 -2 -32 -22 15 -49 76 -63 121 -28
25 19 26 19 52 1 42 -30 77 -36 106 -17 36 23 33 56 -4 56 -32 0 -81 34 -81
57 0 8 11 28 25 45 29 35 32 54 8 66 -23 12 -81 19 -116 14z"/>
<path d="M2506 2535 c-21 -21 -20 -31 3 -54 13 -13 40 -20 100 -25 92 -8 111
-1 111 44 0 27 -1 27 -77 33 -43 3 -87 8 -99 12 -13 4 -27 1 -38 -10z"/>
<path d="M1555 2531 c-26 -4 -41 -12 -43 -23 -4 -22 35 -61 54 -54 7 3 54 8
104 12 85 6 91 8 88 28 -6 41 -84 55 -203 37z"/>
<path d="M1164 2346 c-9 -36 2 -58 41 -85 81 -55 220 -5 182 65 -5 10 -11 21
-13 23 -2 2 -15 -6 -30 -18 -39 -31 -84 -27 -119 9 -35 36 -53 38 -61 6z"/>
</g>
</svg>
